<svg width="232" height="64" viewBox="0 0 232 64" fill="none" xmlns="http://www.w3.org/2000/svg">
<path d="M137.445 13.3584V24.6649H135.264L130.176 17.1056H130.047V24.6649H127.963V13.3584H130.144L135.232 20.9661H135.361V13.3584H137.445Z" fill="#2E2D62"/>
<path d="M147.364 22.8074V24.6649H139.627V13.3584H147.203V15.2158H141.711V18.0263H146.444V19.8354H141.711V22.8074H147.364Z" fill="#2E2D62"/>
<path d="M155.275 24.6649L152.917 20.2553H151.075V24.6649H148.992V13.3584H153.466C155.727 13.3584 157.116 14.699 157.116 16.6857C157.138 17.379 156.938 18.061 156.546 18.6331C156.154 19.2053 155.59 19.6377 154.936 19.8677L157.536 24.6649H155.275ZM151.075 18.4463H153.224C154.322 18.4463 154.984 17.7518 154.984 16.7988C154.984 15.7974 154.322 15.1674 153.224 15.1674H151.075V18.4463Z" fill="#2E2D62"/>
<path d="M163.906 24.8259C160.449 24.8259 158.35 22.3869 158.35 19.0595C158.35 15.6353 160.579 13.1963 163.906 13.1963C166.458 13.1963 168.493 14.553 168.881 17.0567H166.587C166.232 15.8937 165.279 15.1669 163.906 15.1669C161.887 15.1669 160.53 16.8628 160.53 19.0595C160.53 21.337 161.984 22.8553 163.906 22.8553C165.376 22.8553 166.41 22.1285 166.765 21.0301H169.059C168.687 23.4529 166.523 24.8259 163.906 24.8259Z" fill="#2E2D62"/>
<path d="M135.7 39.3592V41.2167H127.963V29.9102H135.539V31.7676H130.047V34.5781H134.78V36.3871H130.047V39.3592H135.7Z" fill="#2E2D62"/>
<path d="M137.036 33.1409H138.926L139.104 34.094H139.233C139.717 33.464 140.396 32.9795 141.607 32.9795C143.529 32.9795 144.757 34.207 144.757 36.3229V41.2171H142.689V36.743C142.689 35.4185 141.93 34.7723 140.961 34.7723C139.976 34.7723 139.104 35.4022 139.104 36.8398V41.2171H137.036V33.1409Z" fill="#2E2D62"/>
<path d="M145.215 33.1396H147.347L149.496 39.0676H149.625L151.741 33.1396H153.857L150.772 41.2158H148.301L145.215 33.1396Z" fill="#2E2D62"/>
<path d="M154.414 30.8636C154.418 30.5278 154.554 30.2073 154.793 29.9714C155.032 29.7355 155.354 29.6033 155.69 29.6035C155.855 29.6041 156.018 29.6371 156.169 29.7009C156.321 29.7646 156.459 29.8577 156.574 29.9748C156.69 30.0919 156.781 30.2307 156.843 30.3832C156.905 30.5358 156.936 30.699 156.934 30.8636C156.928 31.1917 156.795 31.5047 156.563 31.7367C156.331 31.9687 156.018 32.1016 155.69 32.1071C155.359 32.1027 155.042 31.9713 154.804 31.7399C154.567 31.5085 154.427 31.1948 154.414 30.8636ZM154.656 33.1409H156.724V41.2171H154.656V33.1409Z" fill="#2E2D62"/>
<path d="M158.305 33.1409H160.178L160.372 34.2877H160.501C161.002 33.4801 161.551 32.9795 162.908 32.9795H163.49V35.047C163.201 35.0014 162.909 34.9798 162.617 34.9823C160.841 34.9823 160.372 36.2908 160.372 37.4536V41.2171H158.305V33.1409Z" fill="#2E2D62"/>
<path d="M163.952 37.1629C163.952 34.6755 165.793 32.9795 168.216 32.9795C170.639 32.9795 172.48 34.6916 172.48 37.1629C172.48 39.6665 170.655 41.3786 168.216 41.3786C165.809 41.3786 163.952 39.6504 163.952 37.1629ZM170.429 37.1629C170.429 35.8223 169.54 34.7723 168.216 34.7723C166.891 34.7723 166.019 35.8223 166.019 37.1629C166.019 38.5197 166.891 39.5858 168.216 39.5858C169.557 39.5858 170.429 38.5197 170.429 37.1629Z" fill="#2E2D62"/>
<path d="M173.725 33.1409H175.615L175.793 34.094H175.922C176.406 33.464 177.085 32.9795 178.296 32.9795C180.218 32.9795 181.446 34.207 181.446 36.3229V41.2171H179.378V36.743C179.378 35.4185 178.619 34.7723 177.65 34.7723C176.665 34.7723 175.793 35.4022 175.793 36.8398V41.2171H173.725V33.1409Z" fill="#2E2D62"/>
<path d="M183.02 33.1402H184.91L185.088 34.0932H185.217C185.464 33.7378 185.795 33.4496 186.182 33.255C186.568 33.0603 186.997 32.9654 187.429 32.9788C188.706 32.9788 189.271 33.6734 189.546 34.2547H189.675C190.111 33.6248 190.821 32.9788 192.195 32.9788C193.858 32.9788 194.924 33.9802 194.924 35.9346V41.2164H192.857V36.3222C192.857 35.2884 192.243 34.7716 191.468 34.7716C190.595 34.7716 189.998 35.4178 189.998 36.4352V41.2164H187.93V36.3868C187.93 35.3208 187.333 34.7716 186.557 34.7716C185.814 34.7716 185.088 35.3047 185.088 36.4192V41.2164H183.02V33.1402Z" fill="#2E2D62"/>
<path d="M204.086 38.6651C203.763 40.3288 202.374 41.3786 200.323 41.3786C197.916 41.3786 196.172 39.7472 196.172 37.2599C196.172 34.5948 198.013 32.9795 200.242 32.9795C202.229 32.9795 204.07 34.2393 204.07 37.1305C204.07 37.3245 204.054 37.502 204.038 37.7283H198.223C198.304 38.8912 199.063 39.7312 200.323 39.7312C201.228 39.7312 201.874 39.3597 202.1 38.6651L204.086 38.6651ZM198.239 36.3392H202.1C202.051 35.3378 201.308 34.6271 200.242 34.6271C199.755 34.61 199.278 34.7764 198.908 35.0934C198.537 35.4103 198.298 35.8549 198.239 36.3392V36.3392Z" fill="#2E2D62"/>
<path d="M205.396 33.1409H207.285L207.463 34.094H207.592C208.077 33.464 208.755 32.9795 209.967 32.9795C211.889 32.9795 213.116 34.207 213.116 36.3229V41.2171H211.049V36.743C211.049 35.4185 210.29 34.7723 209.32 34.7723C208.335 34.7723 207.463 35.4022 207.463 36.8398V41.2171H205.396V33.1409Z" fill="#2E2D62"/>
<path d="M215.532 39.0203V34.7723H213.804V33.1409H214.353C215.338 33.1409 215.726 32.7857 215.726 31.9134V30.9443H217.6V33.1409H219.715V34.7723H217.6V38.7458C217.6 39.198 217.713 39.7472 218.682 39.7472C218.949 39.7414 219.215 39.7034 219.473 39.6342V41.201C219.008 41.3144 218.531 41.3739 218.052 41.3786C215.79 41.3786 215.532 39.9089 215.532 39.0203Z" fill="#2E2D62"/>
<path d="M228.218 39.6665V41.2171H227.345C226.586 41.2171 225.989 40.991 225.714 40.248C225.165 40.9426 224.325 41.3786 223.049 41.3786C221.401 41.3786 220.19 40.6033 220.19 39.0042C220.19 37.4536 221.369 36.6946 222.855 36.5492L225.375 36.2908V35.9514C225.375 35.063 224.81 34.6271 224.018 34.6271C223.146 34.6271 222.694 35.1116 222.564 35.8384H220.497C220.658 34.1586 221.951 32.9795 224.018 32.9795C225.908 32.9795 227.442 33.9325 227.442 36.0968V39.0526C227.442 39.4727 227.636 39.6665 228.024 39.6665H228.218ZM225.375 37.7121L223.566 37.9058C222.823 37.9866 222.257 38.2936 222.257 38.9235C222.257 39.5695 222.758 39.7958 223.404 39.7958C224.277 39.7958 225.375 39.3757 225.375 38.0998V37.7121Z" fill="#2E2D62"/>
<path d="M229.266 29.749H231.333V41.2172H229.266V29.749Z" fill="#2E2D62"/>
<path d="M137.429 52.1172C137.429 55.5737 135.377 57.7705 131.921 57.7705H127.963V46.4639H131.921C135.377 46.4639 137.429 48.6121 137.429 52.1172ZM135.248 52.0526C135.248 49.8719 134.214 48.3697 131.84 48.3697H130.096V55.8644H131.84C134.214 55.8644 135.248 54.2494 135.248 52.0526Z" fill="#2E2D62"/>
<path d="M146.462 56.2184V57.769H145.59C144.83 57.769 144.233 57.5429 143.958 56.7999C143.409 57.4945 142.569 57.9304 141.293 57.9304C139.646 57.9304 138.434 57.1551 138.434 55.5561C138.434 54.0055 139.613 53.2464 141.099 53.1011L143.619 52.8426V52.5033C143.619 51.6149 143.054 51.1789 142.262 51.1789C141.39 51.1789 140.938 51.6635 140.809 52.3902H138.741C138.903 50.7105 140.195 49.5312 142.262 49.5312C144.152 49.5312 145.687 50.4844 145.687 52.6486V55.6045C145.687 56.0246 145.88 56.2183 146.268 56.2183L146.462 56.2184ZM143.619 54.2639L141.81 54.4577C141.067 54.5384 140.502 54.8454 140.502 55.4754C140.502 56.1214 141.002 56.3477 141.648 56.3477C142.521 56.3477 143.619 55.9276 143.619 54.6517V54.2639Z" fill="#2E2D62"/>
<path d="M148.185 55.5731V51.3251H146.457V49.6937H147.006C147.991 49.6937 148.379 49.3385 148.379 48.4662V47.4971H150.252V49.6937H152.368V51.3251H150.252V55.2986C150.252 55.7509 150.365 56.3001 151.334 56.3001C151.602 56.2942 151.868 56.2562 152.126 56.187V57.7539C151.661 57.8672 151.184 57.9267 150.705 57.9314C148.443 57.9314 148.185 56.4617 148.185 55.5731Z" fill="#2E2D62"/>
<path d="M161.523 56.2507V57.672C161.177 57.8007 160.81 57.861 160.441 57.8497C159.569 57.8497 158.81 57.5266 158.471 56.7513C157.938 57.4782 157.065 57.9304 155.773 57.9304C154.126 57.9304 152.914 57.1551 152.914 55.5561C152.914 54.0055 154.093 53.2464 155.579 53.1011L158.099 52.8426V52.5033C158.099 51.6149 157.534 51.1789 156.742 51.1789C155.87 51.1789 155.418 51.6635 155.289 52.3902H153.221C153.383 50.7105 154.675 49.5312 156.742 49.5312C158.632 49.5312 160.167 50.4844 160.167 52.6486V55.5077C160.167 56.1053 160.473 56.3477 160.974 56.3477C161.161 56.3455 161.347 56.3128 161.523 56.2507ZM158.099 54.2639L156.29 54.4577C155.547 54.5384 154.982 54.8454 154.982 55.4754C154.982 56.1214 155.482 56.3477 156.128 56.3477C157.001 56.3477 158.099 55.9276 158.099 54.6517V54.2639Z" fill="#2E2D62"/>
<path d="M170.309 57.9305C167.612 57.9305 166.174 56.4769 166.094 54.3124H168.194C168.29 55.4431 169.017 56.1214 170.309 56.1214C171.279 56.1214 172.086 55.7176 172.086 54.7325C172.086 53.5857 170.972 53.2142 169.938 52.9072L169.292 52.7134C167.903 52.2935 166.449 51.4373 166.449 49.5637C166.449 47.5446 168.097 46.3008 170.277 46.3008C172.603 46.3008 174.073 47.706 174.138 49.6283H172.038C171.941 48.7398 171.376 48.1098 170.293 48.1098C169.292 48.1098 168.597 48.643 168.597 49.4667C168.597 50.4359 169.583 50.7589 170.536 51.0497L171.101 51.2274C172.167 51.5505 174.234 52.3096 174.234 54.6678C174.234 56.8807 172.393 57.9305 170.309 57.9305Z" fill="#2E2D62"/>
<path d="M183.309 55.2169C182.986 56.8806 181.597 57.9304 179.546 57.9304C177.139 57.9304 175.395 56.2991 175.395 53.8117C175.395 51.1466 177.236 49.5312 179.465 49.5312C181.452 49.5312 183.293 50.7912 183.293 53.6824C183.293 53.8764 183.277 54.0539 183.261 54.2802H177.446C177.527 55.443 178.286 56.283 179.546 56.283C180.45 56.283 181.096 55.9115 181.322 55.2169H183.309ZM177.462 52.891H181.322C181.274 51.8896 180.531 51.179 179.465 51.179C178.977 51.1618 178.501 51.3282 178.13 51.6452C177.759 51.9622 177.521 52.4067 177.462 52.891Z" fill="#2E2D62"/>
<path d="M184.617 49.6927H186.491L186.685 50.8396H186.814C187.315 50.0319 187.864 49.5312 189.221 49.5312H189.802V51.5988C189.514 51.5532 189.222 51.5316 188.93 51.5342C187.153 51.5342 186.685 52.8426 186.685 54.0055V57.769H184.617V49.6927Z" fill="#2E2D62"/>
<path d="M190.31 49.6943H192.442L194.59 55.6224H194.72L196.836 49.6943H198.952L195.867 57.7706H193.395L190.31 49.6943Z" fill="#2E2D62"/>
<path d="M199.512 47.4153C199.516 47.0796 199.653 46.759 199.891 46.5231C200.13 46.2872 200.453 46.1551 200.788 46.1553C200.953 46.1558 201.116 46.1889 201.267 46.2526C201.419 46.3163 201.557 46.4094 201.672 46.5265C201.788 46.6436 201.879 46.7825 201.941 46.935C202.003 47.0875 202.034 47.2508 202.032 47.4153C202.026 47.7434 201.894 48.0565 201.662 48.2885C201.43 48.5205 201.116 48.6533 200.788 48.6589C200.457 48.6545 200.14 48.523 199.902 48.2917C199.665 48.0603 199.525 47.7466 199.512 47.4153ZM199.755 49.6927H201.822V57.7689H199.755V49.6927Z" fill="#2E2D62"/>
<path d="M203.016 53.7633C203.016 51.2273 204.857 49.5312 207.215 49.5312C209.089 49.5312 210.866 50.5328 211.124 52.6486H209.057C208.879 51.9057 208.184 51.3241 207.215 51.3241C205.988 51.3241 205.083 52.3257 205.083 53.7633C205.083 55.1846 205.923 56.1376 207.248 56.1376C208.184 56.1376 208.814 55.7175 209.073 54.9746H211.156C210.882 56.7836 209.347 57.9304 207.248 57.9304C204.728 57.9304 203.016 56.2023 203.016 53.7633Z" fill="#2E2D62"/>
<path d="M219.841 55.2169C219.518 56.8806 218.129 57.9304 216.078 57.9304C213.671 57.9304 211.927 56.2991 211.927 53.8117C211.927 51.1466 213.768 49.5312 215.997 49.5312C217.984 49.5312 219.825 50.7912 219.825 53.6824C219.825 53.8764 219.809 54.0539 219.793 54.2802H213.978C214.059 55.443 214.818 56.283 216.078 56.283C216.982 56.283 217.628 55.9115 217.855 55.2169H219.841ZM213.994 52.891H217.855C217.806 51.8896 217.063 51.179 215.997 51.179C215.51 51.1618 215.033 51.3282 214.662 51.6452C214.292 51.9622 214.053 52.4067 213.994 52.891Z" fill="#2E2D62"/>
<path d="M56.8731 7.12695H0V64H56.8731V7.12695Z" fill="#2E2D62"/>
<path d="M50.6153 13.3848H43.984L35.0692 22.8781V13.3848H22.1869V25.9871C22.1869 28.6851 20.1893 30.2514 17.5393 30.2514C14.8893 30.2514 12.8915 28.6851 12.8915 25.9871V13.3848H6.26025V26.0834C6.26025 31.7706 10.8518 35.033 16.0315 35.5622H6.26025V57.7397H12.8915V49.5205H15.7883L21.9162 57.7397H50.6153V53.2603H42.8422V40.0416H50.6153V34.1907L41.1103 24.4581L50.6153 14.7563V13.3848ZM28.4378 28.7777V39.0666C27.0258 36.6822 23.7786 35.5752 18.959 35.563C23.2596 35.1263 27.2354 32.806 28.4378 28.7777ZM12.8915 40.0416H18.959C21.4534 40.0416 22.4643 41.0085 22.4643 42.526C22.4643 44.0434 21.4534 45.0411 18.959 45.0411H12.8915V40.0416ZM36.2109 53.2603H28.4378V56.3682L22.9666 49.1977C27.1323 48.4308 29.2836 46.2768 29.2836 42.526C29.2957 41.6815 29.1631 40.8412 28.8913 40.0416H36.2109V53.2603ZM43.984 35.5622H35.0692V26.0425L43.984 35.5622Z" fill="white"/>
<path d="M90.8862 7.12695C101.23 11.4217 108.917 17.5662 113.744 25.7009V7.12695H90.8862Z" fill="#3E863E"/>
<path d="M90.8875 7.12756C81.7479 3.33258 70.5276 0.986212 57.3542 0H56.873V35.011C65.3223 37.8949 68.9621 43.7937 68.9621 51.675C68.9621 56.6164 67.5302 60.8214 64.3815 63.9996H113.745V25.7015C108.918 17.5668 101.231 11.4224 90.8875 7.12757" fill="#67C04D"/>
<path d="M56.8726 35.0107V63.9993H64.381C67.5297 60.821 68.9616 56.6161 68.9616 51.6747C68.9616 43.7934 65.3218 37.8946 56.8726 35.0107Z" fill="#3E863E"/>
</svg>
